<?xml version="1.0" encoding="UTF-8" standalone="no"?>
<svg
   xmlns:dc="http://purl.org/dc/elements/1.1/"
   xmlns:cc="http://creativecommons.org/ns#"
   xmlns:rdf="http://www.w3.org/1999/02/22-rdf-syntax-ns#"
   xmlns:svg="http://www.w3.org/2000/svg"
   xmlns="http://www.w3.org/2000/svg"
   xmlns:xlink="http://www.w3.org/1999/xlink"
   xmlns:sodipodi="http://sodipodi.sourceforge.net/DTD/sodipodi-0.dtd"
   xmlns:inkscape="http://www.inkscape.org/namespaces/inkscape"
   style="enable-background:new"
   height="512"
   viewBox="0 0 512.40002 512"
   width="512.4"
   version="1.1"
   id="svg35"
   sodipodi:docname="logo.svg"
   inkscape:version="0.92.5 (2060ec1f9f, 2020-04-08)">
  <metadata
     id="metadata39">
    <rdf:RDF>
      <cc:Work
         rdf:about="">
        <dc:format>image/svg+xml</dc:format>
        <dc:type
           rdf:resource="http://purl.org/dc/dcmitype/StillImage" />
      </cc:Work>
    </rdf:RDF>
  </metadata>
  <sodipodi:namedview
     pagecolor="#ffffff"
     bordercolor="#666666"
     borderopacity="1"
     objecttolerance="10"
     gridtolerance="10"
     guidetolerance="10"
     inkscape:pageopacity="0"
     inkscape:pageshadow="2"
     inkscape:window-width="1310"
     inkscape:window-height="704"
     id="namedview37"
     showgrid="false"
     inkscape:zoom="0.70710678"
     inkscape:cx="179.83491"
     inkscape:cy="337.13804"
     inkscape:window-x="56"
     inkscape:window-y="27"
     inkscape:window-maximized="1"
     inkscape:current-layer="layer2" />
  <defs
     id="defs7">
    <linearGradient
       id="a"
       y2="494"
       gradientUnits="userSpaceOnUse"
       x2="256"
       gradientTransform="matrix(1 0 0 1.076 0 -19.36)"
       y1="18"
       x1="256">
      <stop
         style="stop-color:#ef8629;stop-opacity:1"
         offset="0"
         id="stop2" />
      <stop
         style="stop-color:#f29b4d;stop-opacity:1"
         offset="1"
         id="stop4" />
    </linearGradient>
    <linearGradient
       inkscape:collect="always"
       xlink:href="#a"
       id="linearGradient859"
       x1="-1.4141093"
       y1="-16.585608"
       x2="-1.4141093"
       y2="495.41422"
       gradientUnits="userSpaceOnUse" />
  </defs>
  <g
     inkscape:groupmode="layer"
     id="layer1"
     inkscape:label="back"
     style="display:inline"
     sodipodi:insensitive="true">
    <g
       style="enable-background:new"
       transform="translate(1.4141093,16.585791)"
       id="g17">
      <rect
         style="fill:url(#linearGradient859);fill-opacity:1;stroke:none;stroke-width:0.40188304;stroke-miterlimit:4;stroke-dasharray:none;stroke-opacity:1"
         id="rect1113"
         width="512.40002"
         height="511.99982"
         x="-1.4141093"
         y="-16.585608" />
    </g>
  </g>
  <g
     inkscape:groupmode="layer"
     id="layer2"
     inkscape:label="front"
     style="display:inline">
    <rect
       style="fill:#ba645e;fill-opacity:0.23921569;stroke:#000000;stroke-width:2.11691904;stroke-linecap:round;stroke-linejoin:round;stroke-miterlimit:4;stroke-dasharray:none;stroke-opacity:1"
       id="rect953"
       width="359.88309"
       height="432.88309"
       x="76.058464"
       y="38.05846"
       ry="3.1255126" />
    <rect
       style="fill:#b23b16;fill-opacity:1;stroke:none;stroke-width:13.07768536;stroke-linecap:round;stroke-linejoin:round;stroke-miterlimit:4;stroke-dasharray:none;stroke-opacity:1"
       id="rect951"
       width="220.65543"
       height="28.251705"
       x="181.76671"
       y="60.201012"
       ry="5.3271923" />
    <circle
       r="23.222223"
       cy="77.058884"
       cx="127.62993"
       id="circle955"
       style="fill:none;fill-opacity:1;stroke:#b23b16;stroke-width:10.55555534;stroke-linecap:round;stroke-linejoin:round;stroke-miterlimit:4;stroke-dasharray:none;stroke-opacity:1" />
    <g
       aria-label="x"
       style="font-style:normal;font-weight:normal;font-size:104.24638367px;line-height:1.25;font-family:sans-serif;letter-spacing:0px;word-spacing:0px;fill:#2fe100;fill-opacity:1;stroke:none;stroke-width:3.90923929"
       id="text989"
       transform="translate(0,-18)">
      <path
         d="m 153.2031,67.495752 -20.61513,27.741347 21.68406,29.268391 H 143.2264 l -16.59391,-22.39668 -16.59391,22.39668 H 98.992945 L 121.13512,94.677182 100.8763,67.495752 h 11.04564 l 15.11776,20.30972 15.11776,-20.30972 z"
         style="fill:#2fe100;fill-opacity:1;stroke-width:3.90923929"
         id="path991"
         inkscape:connector-curvature="0" />
    </g>
    <rect
       ry="5.3271923"
       y="130.20052"
       x="181.76671"
       height="28.251705"
       width="220.65543"
       id="rect994"
       style="fill:#b23b16;fill-opacity:1;stroke:none;stroke-width:13.07768536;stroke-linecap:round;stroke-linejoin:round;stroke-miterlimit:4;stroke-dasharray:none;stroke-opacity:1" />
    <circle
       style="fill:none;fill-opacity:1;stroke:#b23b16;stroke-width:10.55555534;stroke-linecap:round;stroke-linejoin:round;stroke-miterlimit:4;stroke-dasharray:none;stroke-opacity:1"
       id="circle996"
       cx="127.62993"
       cy="147.0584"
       r="23.222223" />
    <g
       id="g1000"
       style="font-style:normal;font-weight:normal;font-size:104.24638367px;line-height:1.25;font-family:sans-serif;letter-spacing:0px;word-spacing:0px;fill:#2fe100;fill-opacity:1;stroke:none;stroke-width:3.90923929"
       aria-label="x"
       transform="translate(0,51.99951)">
      <path
         inkscape:connector-curvature="0"
         id="path998"
         style="fill:#2fe100;fill-opacity:1;stroke-width:3.90923929"
         d="m 153.2031,67.495752 -20.61513,27.741347 21.68406,29.268391 H 143.2264 l -16.59391,-22.39668 -16.59391,22.39668 H 98.992945 L 121.13512,94.677182 100.8763,67.495752 h 11.04564 l 15.11776,20.30972 15.11776,-20.30972 z" />
    </g>
    <rect
       ry="5.3271923"
       y="200.20102"
       x="181.76671"
       height="28.251705"
       width="220.65543"
       id="rect1002"
       style="fill:#b23b16;fill-opacity:1;stroke:none;stroke-width:13.07768536;stroke-linecap:round;stroke-linejoin:round;stroke-miterlimit:4;stroke-dasharray:none;stroke-opacity:1" />
    <circle
       style="fill:none;fill-opacity:1;stroke:#b23b16;stroke-width:10.55555534;stroke-linecap:round;stroke-linejoin:round;stroke-miterlimit:4;stroke-dasharray:none;stroke-opacity:1"
       id="circle1004"
       cx="127.62993"
       cy="217.05887"
       r="23.222223" />
    <rect
       style="fill:#b23b16;fill-opacity:1;stroke:none;stroke-width:13.07768536;stroke-linecap:round;stroke-linejoin:round;stroke-miterlimit:4;stroke-dasharray:none;stroke-opacity:1"
       id="rect1010"
       width="220.65543"
       height="28.251705"
       x="181.76671"
       y="270.2005"
       ry="5.3271923" />
    <circle
       r="23.222223"
       cy="287.05841"
       cx="127.62993"
       id="circle1012"
       style="fill:none;fill-opacity:1;stroke:#b23b16;stroke-width:10.55555534;stroke-linecap:round;stroke-linejoin:round;stroke-miterlimit:4;stroke-dasharray:none;stroke-opacity:1" />
    <rect
       ry="5.3271923"
       y="340.2005"
       x="181.76671"
       height="28.251705"
       width="220.65543"
       id="rect1018"
       style="fill:#b23b16;fill-opacity:1;stroke:none;stroke-width:13.07768536;stroke-linecap:round;stroke-linejoin:round;stroke-miterlimit:4;stroke-dasharray:none;stroke-opacity:1" />
    <circle
       style="fill:none;fill-opacity:1;stroke:#b23b16;stroke-width:10.55555534;stroke-linecap:round;stroke-linejoin:round;stroke-miterlimit:4;stroke-dasharray:none;stroke-opacity:1"
       id="circle1020"
       cx="127.62993"
       cy="357.05841"
       r="23.222223" />
    <circle
       r="23.222223"
       cy="427.05801"
       cx="127.62993"
       id="circle1026"
       style="fill:none;fill-opacity:1;stroke:#b23b16;stroke-width:10.55555534;stroke-linecap:round;stroke-linejoin:round;stroke-miterlimit:4;stroke-dasharray:none;stroke-opacity:1" />
  </g>
  <path
     d="m-208.3 605.6c-7.842 0-14.55 5.029-17.32 12.19-0.0612-0.00067-0.1208 0-0.1823 0-7.088 0-12.83 6.002-12.83 13.41 0 7.404 5.746 13.41 12.83 13.41h17.5 16.33c5.155 0 9.333-4.365 9.333-9.75 0-4.543-2.974-8.363-7-9.445 0.001-0.1029 0-0.2015 0-0.3047 0-10.77-8.357-19.5-18.67-19.5z"
     style="stroke-width:4;color:#000000;stroke:#ccc;enable-background:accumulate;display:none;fill:#fff"
     id="path19" />
  <path
     style="stroke-width:4;color:#000000;stroke:#ccc;enable-background:accumulate;display:none;fill:none"
     d="m288.9 828.1c-6.349 0-11.78 4.072-14.02 9.867-0.0496-0.00055-0.0978 0-0.1476 0-5.738 0-10.39 4.86-10.39 10.85 0 5.995 4.652 10.85 10.39 10.85h14.17 13.22c4.173 0 7.557-3.534 7.557-7.894 0-3.678-2.408-6.771-5.667-7.647 0.001-0.0833 0-0.1632 0-0.2467 0-8.719-6.766-15.79-15.11-15.79z"
     id="path21" />
  <g
     style="display:none"
     transform="translate(0 -558.4)"
     id="g33">
    <path
       d="m166.1 576.4h179.9c145.3 0 166.1 20.74 166.1 165.9v144.2c0 145.2-20.76 165.9-166.1 165.9h-179.9c-145.3 0-166.1-20-166.1-165.5v-144.2c0-145.2 20.76-165.9 166.1-165.9z"
       style="stroke:#00f;fill:#00f;display:inline;fill-opacity:.08118"
       id="path23" />
    <circle
       style="stroke-width:.8333;fill-opacity:.08118;color:#000000;stroke:#00f;enable-background:accumulate;display:inline;fill:#00f"
       cx="256"
       transform="matrix(1.2 0 0 1.2 -51.2 528.8)"
       cy="238"
       r="120"
       id="circle25" />
    <rect
       style="stroke-linejoin:round;fill-opacity:.08118;color:#000000;stroke:#00f;stroke-linecap:round;enable-background:accumulate;display:inline;fill:#00f"
       height="272"
       width="272"
       y="678.4"
       x="120"
       id="rect27" />
    <rect
       style="stroke-linejoin:round;fill-opacity:.08118;color:#000000;stroke:#00f;stroke-linecap:round;enable-background:accumulate;display:inline;fill:#00f"
       height="240"
       width="304"
       y="694.4"
       x="104"
       id="rect29" />
    <rect
       style="stroke-linejoin:round;fill-opacity:.08118;color:#000000;stroke:#00f;stroke-linecap:round;enable-background:accumulate;display:inline;fill:#00f"
       height="304"
       width="240"
       y="662.4"
       x="136"
       id="rect31" />
  </g>
</svg>
